<svg xmlns="http://www.w3.org/2000/svg" xmlns:svg="http://www.w3.org/2000/svg" id="Layer_1" width="32" height="32" x="0" y="0" enable-background="new 0 0 789.322 336.807" version="1.1" viewBox="0 0 32 32" xml:space="preserve"><metadata id="metadata23"/><g id="layer2" transform="translate(0,-304.807)"><rect id="rect835" width="32" height="32" x="0" y="304.807" fill="#01ff46" fill-opacity="1" fill-rule="evenodd" stroke="none" stroke-dasharray="none" stroke-dashoffset="0" stroke-linecap="butt" stroke-linejoin="miter" stroke-miterlimit="4" stroke-opacity="1" stroke-width=".18" opacity="1" ry="0" vector-effect="none"/></g><g id="layer3" display="none" transform="translate(0,-304.807)"><path id="path2" d="M 8.876,7.7100064 V 329.096 h 23.13 v 7.711 H 0 V 6.328125e-6 H 32.006 V 7.7100064 Z" display="inline"/><path id="path16" d="M 328.444,329.096 V 7.7100064 h -23.13 V 6.328125e-6 h 32.008 V 336.807 h -32.008 v -7.711 z" display="inline"/></g><g id="layer1" display="inline" transform="translate(0,-304.807)"><path id="path4" stroke-width=".081" d="m 11.084541,316.07059 v 1.31831 h 0.03753 c 0.351622,-0.50183 0.77514,-0.89146 1.271288,-1.1677 0.495821,-0.27576 1.064188,-0.4142 1.704371,-0.4142 0.615055,0 1.177018,0.11955 1.685404,0.35786 0.508547,0.23872 0.894699,0.65907 1.158376,1.26181 0.28856,-0.42676 0.680873,-0.80352 1.177019,-1.12993 0.495821,-0.32625 1.08275,-0.48974 1.760867,-0.48974 0.514787,0 0.991641,0.0629 1.431454,0.18845 0.439163,0.12557 0.81583,0.32642 1.129764,0.60258 0.313605,0.2764 0.558397,0.63734 0.734529,1.08266 0.175651,0.44614 0.263677,0.98257 0.263677,1.61051 v 6.51572 h -2.674292 v -5.51783 c 0,-0.32625 -0.0125,-0.63386 -0.03769,-0.92282 -0.02539,-0.28857 -0.09411,-0.53951 -0.207097,-0.75326 -0.113074,-0.21327 -0.279645,-0.38291 -0.499063,-0.50855 -0.219743,-0.12507 -0.51803,-0.18821 -0.894619,-0.18821 -0.376588,0 -0.681116,0.0726 -0.913423,0.21649 -0.232469,0.14461 -0.41436,0.33306 -0.546077,0.56505 -0.131797,0.23256 -0.219743,0.49607 -0.263595,0.79127 -0.04418,0.29488 -0.06598,0.59317 -0.06598,0.89446 v 5.42348 h -2.674127 v -5.46117 c 0,-0.28873 -0.0066,-0.57445 -0.01864,-0.85677 -0.01281,-0.28264 -0.06598,-0.54308 -0.160329,-0.78178 -0.09419,-0.23831 -0.251193,-0.42993 -0.470856,-0.57454 -0.219744,-0.14387 -0.542997,-0.21649 -0.969839,-0.21649 -0.125719,0 -0.292047,0.0283 -0.498983,0.0849 -0.207181,0.0565 -0.4082,0.16341 -0.602655,0.3201 -0.194859,0.15708 -0.361025,0.38307 -0.499144,0.67787 -0.138202,0.29521 -0.20718,0.68104 -0.20718,1.15805 v 5.64971 H 8.5611801 v -9.73631 z"/><g id="text820" fill="#000" fill-opacity="1" stroke="none" stroke-linecap="butt" stroke-linejoin="miter" stroke-opacity="1" stroke-width=".561" aria-label="[" font-family="sans-serif" font-size="22.432" font-style="normal" font-weight="normal" letter-spacing="0" transform="translate(2.9280782)" word-spacing="0" style="line-height:125%"><path id="path843" stroke-width=".561" d="m 2,310.80701 h 4.6440309 v 1.56627 H 4.0153342 v 16.86747 h 2.6286967 v 1.56627 H 2 Z"/></g><g id="text820-3" fill="#000" fill-opacity="1" stroke="none" stroke-linecap="butt" stroke-linejoin="miter" stroke-opacity="1" stroke-width=".561" aria-label="[" display="inline" font-family="sans-serif" font-size="22.432" font-style="normal" font-weight="normal" letter-spacing="0" transform="matrix(-1,0,0,1,-2.9722724,0)" word-spacing="0" style="line-height:125%"><path id="path840" stroke-width=".561" d="m -30.000001,310.80701 h 4.644031 v 1.56627 h -2.628696 v 16.86747 h 2.628696 v 1.56627 h -4.644031 z"/></g></g></svg>