<svg xmlns="http://www.w3.org/2000/svg" xmlns:svg="http://www.w3.org/2000/svg" id="svg2" width="32" height="32" version="1.1" viewBox="0 0 32 32"><metadata id="metadata26"/><defs id="defs4"><linearGradient id="b" x1="160.008" x2="100.008" y1="40.008" y2="180" gradientTransform="translate(10.169492,-9.1525424)" gradientUnits="userSpaceOnUse"><stop id="stop7" offset="0" stop-color="#37aee2"/><stop id="stop9" offset="1" stop-color="#1e96c8"/></linearGradient><linearGradient id="w" x1="123.641" x2="146.527" y1="131.028" y2="174.708" gradientTransform="scale(1.0919081,0.91582798)" gradientUnits="userSpaceOnUse"><stop id="stop12" offset="0" stop-color="#eff7fc"/><stop id="stop14" offset="1" stop-color="#fff"/></linearGradient><filter id="filter4195" color-interpolation-filters="sRGB"><feColorMatrix id="feColorMatrix4197" result="color1" type="hueRotate" values="180"/><feColorMatrix id="feColorMatrix4199" result="color2" values="-1 0 0 0 1 0 -1 0 0 1 0 0 -1 0 1 -0.21 -0.72 -0.07 2 0"/></filter></defs><rect id="rect4154" width="32" height="32" x="0" y="0" fill="#01ff46" fill-opacity="1" stroke="none" stroke-dasharray="none" stroke-dashoffset="0" stroke-linecap="butt" stroke-linejoin="miter" stroke-miterlimit="4" stroke-opacity="1" stroke-width="1" opacity="1"/><g id="g4142" filter="url(#filter4195)" transform="matrix(0.17736823,0,0,0.17736823,-4.2492678,-6.5089241)"><path id="path18" fill="#c8daea" d="m 98,175 c -3.8876,0 -3.227,-1.4679 -4.5678,-5.1695 L 82,132.2059 170,80"/><path id="path20" fill="#a9c9dd" d="m 98,175 c 3,0 4.3255,-1.372 6,-3 l 16,-15.558 -19.958,-12.035"/><path id="path22" fill="url(#w)" d="m 100.04,144.41 48.36,35.729 c 5.5185,3.0449 9.5014,1.4684 10.876,-5.1235 l 19.685,-92.763 c 2.0154,-8.0802 -3.0801,-11.745 -8.3594,-9.3482 l -115.59,44.571 c -7.8901,3.1647 -7.8441,7.5666 -1.4382,9.528 l 29.663,9.2583 68.673,-43.325 c 3.2419,-1.9659 6.2173,-0.90899 3.7752,1.2584"/></g></svg>