<svg xmlns="http://www.w3.org/2000/svg" xmlns:svg="http://www.w3.org/2000/svg" id="Layer_1" width="32" height="32" enable-background="new 0 0 32 32" version="1.0" viewBox="0 0 32 32" xml:space="preserve"><metadata id="metadata25"/><defs id="defs23"><filter id="filter4145" color-interpolation-filters="sRGB"><feColorMatrix id="feColorMatrix4147" result="color1" type="hueRotate" values="180"/><feColorMatrix id="feColorMatrix4149" result="color2" values="-1 0 0 0 1 0 -1 0 0 1 0 0 -1 0 1 -0.21 -0.72 -0.07 2 0"/></filter></defs><g id="g3"><path id="path5" fill="#01ff46" fill-opacity="1" d="m 32,32.007813 c -9.611449,-0.01921 -22.0727536,0.0032 -31.9949323,0.0032 L 0.0100236,0 32,0 Z"/><path id="path7" fill="#FFF" d="M25.987,9.894c-0.736,0.322-1.525,0.537-2.357,0.635c0.85-0.498,1.5-1.289,1.806-2.231 c-0.792,0.461-1.67,0.797-2.605,0.978C22.083,8.491,21.017,8,19.838,8c-2.266,0-4.1,1.807-4.1,4.038 c0,0.314,0.036,0.625,0.104,0.922c-3.407-0.172-6.429-1.779-8.452-4.221c-0.352,0.597-0.556,1.29-0.556,2.032 c0,1.399,0.726,2.635,1.824,3.36c-0.671-0.022-1.304-0.203-1.856-0.506c-0.001,0.017-0.001,0.034-0.001,0.052 c0,1.955,1.414,3.589,3.29,3.96c-0.343,0.09-0.705,0.142-1.081,0.142c-0.264,0-0.52-0.024-0.77-0.072 c0.52,1.604,2.034,2.771,3.828,2.805C10.67,21.594,8.9,22.24,6.979,22.24c-0.33,0-0.658-0.018-0.979-0.056 c1.814,1.145,3.971,1.813,6.287,1.813c7.541,0,11.666-6.154,11.666-11.491c0-0.173-0.005-0.35-0.012-0.521 C24.741,11.414,25.438,10.703,25.987,9.894z" filter="url(#filter4145)"/></g></svg>